# xmcd
# 
# Track frame offsets:
#     182
#     8665
#     21580
#     33215
#     42155
#     52975
#     66140
#     74912
#     83340
#     92637
#     103835
#     118272
#     128290
#     140412
#     148797
#     158280
#     167930
#     179387
#     189935
#     199137
# 
# Disc length: 2802
# 
# Revision: 3
# Processed by: cddbd v1.5.2PL0 Copyright (c) Steve Scherf et al.
# Submitted via: fre:ac v1.0.31
# 
DISCID=0d0af014
DTITLE=Jerry Lee Lewis - The Best Of Jerry Lee Lewis
DYEAR=1982
DGENRE=Rock
TTITLE0=Great Balls Of Fire
TTITLE1=Whole Lotta Shakin' Goin' On
TTITLE2=Drinkin' Wine Spo-Dee-O-Dee
TTITLE3=Lewis Boogie
TTITLE4=Mean Woman Blues
TTITLE5=You Win Again
TTITLE6=Jailhouse Rock
TTITLE7=Lovin' Up A Storm
TTITLE8=Pumpin' Piano Rock
TTITLE9=High School Confidential
TTITLE10=Fools Like Me
TTITLE11=Down The Line
TTITLE12=Breathless
TTITLE13=Wild One
TTITLE14=Milkshake Mademoiselle
TTITLE15=Pink Pedal Pushers
TTITLE16=I Could Never Be Ashamed Of You
TTITLE17=In The Mood
TTITLE18=Let's Talk About Us
TTITLE19=What'd I Say
EXTD=
EXTT0=
EXTT1=
EXTT2=
EXTT3=
EXTT4=
EXTT5=
EXTT6=
EXTT7=
EXTT8=
EXTT9=
EXTT10=
EXTT11=
EXTT12=
EXTT13=
EXTT14=
EXTT15=
EXTT16=
EXTT17=
EXTT18=
EXTT19=
PLAYORDER=
